<svg width="16" height="16" viewBox="0 0 16 16" fill="none" xmlns="http://www.w3.org/2000/svg">
<path fill-rule="evenodd" clip-rule="evenodd" d="M4.87152 5.17206L5.10019 7.23073L4.63752 7.26739C4.32385 7.29238 4.02761 7.42181 3.79617 7.635C3.56473 7.84819 3.41146 8.13283 3.36085 8.44339C3.1193 9.91577 3.1193 11.4177 3.36085 12.8901C3.41132 13.2007 3.56454 13.4855 3.79599 13.6989C4.02744 13.9122 4.32375 14.0417 4.63752 14.0667L5.63485 14.1467C7.20952 14.2721 8.79219 14.2721 10.3669 14.1467L11.3642 14.0667C11.6779 14.0417 11.9741 13.9123 12.2055 13.6991C12.437 13.4859 12.5902 13.2013 12.6409 12.8907C12.8824 11.4183 12.8824 9.91644 12.6409 8.44406C12.5902 8.13349 12.437 7.84886 12.2055 7.63567C11.9741 7.42248 11.6779 7.29305 11.3642 7.26806L10.9015 7.23139L11.1302 5.17273C11.1569 4.92917 11.1569 4.68584 11.1302 4.44273L11.1149 4.30606C11.0294 3.53998 10.6645 2.8323 10.09 2.31835C9.51548 1.80441 8.77169 1.52026 8.00085 1.52026C7.23002 1.52026 6.48623 1.80441 5.91174 2.31835C5.33724 2.8323 4.97235 3.53998 4.88685 4.30606L4.87152 4.44273C4.8448 4.68533 4.8448 4.93013 4.87152 5.17273M8.25019 2.53339C7.97085 2.50055 7.68778 2.52327 7.41727 2.60024C7.14675 2.67721 6.89412 2.80691 6.67391 2.98189C6.45371 3.15686 6.27028 3.37365 6.13417 3.61978C5.99807 3.86591 5.91198 4.13653 5.88085 4.41606L5.86552 4.55273C5.84694 4.722 5.84694 4.89279 5.86552 5.06206L6.09819 7.15473C7.36485 7.07339 8.63619 7.07339 9.90352 7.15473L10.1362 5.06139C10.1547 4.89234 10.1547 4.72178 10.1362 4.55273L10.1209 4.41606C10.0677 3.93697 9.85382 3.49001 9.51412 3.14801C9.17442 2.80601 8.72891 2.5898 8.25019 2.53339ZM8.00085 9.66673C7.73564 9.66673 7.48128 9.77208 7.29375 9.95962C7.10621 10.1472 7.00085 10.4015 7.00085 10.6667C7.00085 10.9319 7.10621 11.1863 7.29375 11.3738C7.48128 11.5614 7.73564 11.6667 8.00085 11.6667C8.26607 11.6667 8.52042 11.5614 8.70796 11.3738C8.8955 11.1863 9.00085 10.9319 9.00085 10.6667C9.00085 10.4015 8.8955 10.1472 8.70796 9.95962C8.52042 9.77208 8.26607 9.66673 8.00085 9.66673Z" fill="#005770"/>
</svg>
