<svg width="13" height="10" viewBox="0 0 13 10" fill="none" xmlns="http://www.w3.org/2000/svg">
<path d="M4.26129 7.07063L11.0902 0.241731C11.2513 0.0805772 11.4394 0 11.6542 0C11.8691 0 12.0571 0.0805772 12.2183 0.241731C12.3794 0.402885 12.46 0.59439 12.46 0.816245C12.46 1.0381 12.3794 1.22934 12.2183 1.38995L4.82532 8.80304C4.66417 8.9642 4.47616 9.04477 4.26129 9.04477C4.04641 9.04477 3.8584 8.9642 3.69725 8.80304L0.232434 5.33823C0.0712798 5.17707 -0.00607427 4.98584 0.000371894 4.76452C0.00681806 4.5432 0.0908866 4.3517 0.252578 4.19001C0.414269 4.02831 0.605774 3.94774 0.827092 3.94827C1.04841 3.94881 1.23965 4.02939 1.4008 4.19001L4.26129 7.07063Z" fill="black"/>
</svg>
