<svg width="133" height="140" viewBox="0 0 133 140" fill="none" xmlns="http://www.w3.org/2000/svg">
<path d="M83.4655 11.555C79.0648 10.5733 74.574 10.0522 70.0655 10C65.4521 10.0533 60.9455 10.5717 56.5455 11.555C55.6051 11.763 54.7538 12.261 54.1115 12.9786C53.4692 13.6963 53.0683 14.5974 52.9655 15.555L51.9205 24.94C51.7707 26.2637 51.3131 27.534 50.5843 28.6492C49.8556 29.7644 48.8759 30.6935 47.7237 31.3622C46.5715 32.0309 45.2787 32.4206 43.9489 32.5001C42.6191 32.5796 41.2891 32.3467 40.0655 31.82L31.4655 28.035C30.5925 27.6507 29.6217 27.5472 28.6874 27.7389C27.7531 27.9306 26.9015 28.408 26.2505 29.105C20.0309 35.7604 15.3999 43.7384 12.7055 52.44C12.4186 53.3559 12.4253 54.3385 12.7248 55.2504C13.0242 56.1622 13.6014 56.9576 14.3755 57.525L22.0105 63.15C23.0853 63.9397 23.9592 64.9712 24.5616 66.1612C25.1639 67.3512 25.4778 68.6662 25.4778 70C25.4778 71.3338 25.1639 72.6488 24.5616 73.8388C23.9592 75.0288 23.0853 76.0603 22.0105 76.85L14.3755 82.49C13.6024 83.0571 13.0259 83.8516 12.7265 84.7624C12.427 85.6732 12.4197 86.6548 12.7055 87.57C15.4 96.2768 20.0268 104.262 26.2405 110.93C26.8909 111.628 27.7423 112.106 28.6766 112.299C29.6109 112.491 30.582 112.389 31.4555 112.005L40.0955 108.21C41.3125 107.681 42.6366 107.444 43.9615 107.519C45.2864 107.594 46.5755 107.978 47.7255 108.64C50.0555 109.99 51.6105 112.365 51.9155 115.045L52.9555 124.43C53.0578 125.375 53.4502 126.265 54.0787 126.977C54.7072 127.69 55.541 128.19 56.4655 128.41C65.3631 130.526 74.6328 130.526 83.5305 128.41C84.4549 128.19 85.2887 127.69 85.9172 126.977C86.5457 126.265 86.9381 125.375 87.0405 124.43L88.0805 115.03C88.2215 113.705 88.6732 112.433 89.3988 111.316C90.1244 110.199 91.1033 109.269 92.2561 108.601C93.4088 107.934 94.7028 107.548 96.0329 107.474C97.3629 107.401 98.6914 107.643 99.9105 108.18L108.545 111.975C109.419 112.359 110.39 112.461 111.324 112.269C112.259 112.076 113.11 111.598 113.76 110.9C119.971 104.239 124.598 96.2629 127.295 87.565C127.582 86.6491 127.576 85.6665 127.276 84.7546C126.977 83.8428 126.4 83.0474 125.625 82.48L118 76.85C116.925 76.0607 116.051 75.0295 115.448 73.8397C114.845 72.6499 114.531 71.335 114.531 70.0013C114.53 68.6675 114.844 67.3524 115.445 66.1621C116.047 64.9719 116.921 63.9401 117.995 63.15L125.62 57.515C126.393 56.9472 126.968 56.1525 127.267 55.2417C127.565 54.3309 127.572 53.3497 127.285 52.435C124.592 43.7339 119.963 35.7559 113.745 29.1C113.094 28.403 112.243 27.9256 111.308 27.7339C110.374 27.5422 109.403 27.6457 108.53 28.03L99.9305 31.815C98.8588 32.2866 97.7013 32.5317 96.5305 32.535C94.4356 32.5323 92.4155 31.756 90.8579 30.3552C89.3002 28.9545 88.3147 27.0278 88.0905 24.945L87.0405 15.55C86.9372 14.5947 86.5374 13.6956 85.8971 12.9791C85.2568 12.2626 84.4032 11.7646 83.4655 11.555ZM70.0005 90C64.6961 90 59.609 87.8929 55.8583 84.1421C52.1076 80.3914 50.0005 75.3043 50.0005 70C50.0005 64.6957 52.1076 59.6086 55.8583 55.8579C59.609 52.1071 64.6961 50 70.0005 50C75.3048 50 80.3919 52.1071 84.1426 55.8579C87.8933 59.6086 90.0005 64.6957 90.0005 70C90.0005 75.3043 87.8933 80.3914 84.1426 84.1421C80.3919 87.8929 75.3048 90 70.0005 90Z" fill="url(#paint0_linear_2569_6803)"/>
<defs>
<linearGradient id="paint0_linear_2569_6803" x1="98.7455" y1="125.355" x2="31.6305" y2="20.865" gradientUnits="userSpaceOnUse">
<stop stop-color="#70777D"/>
<stop offset="1" stop-color="#B9C0C7"/>
</linearGradient>
</defs>
</svg>
