<svg width="40" height="40" viewBox="0 0 40 40" fill="none" xmlns="http://www.w3.org/2000/svg">
<rect width="40" height="40" rx="6" fill="#005770"/>
<path d="M25.0039 17.3233L24.7372 16.8522C24.5355 16.4956 24.4347 16.3178 24.2624 16.2472C24.0909 16.1757 23.8966 16.2316 23.5089 16.3443L22.8489 16.5332C22.6008 16.5909 22.3403 16.5578 22.1146 16.4397L21.9322 16.3333C21.7373 16.2055 21.588 16.019 21.5059 15.8008L21.3254 15.2526C21.2071 14.8896 21.1475 14.7081 21.0064 14.6036C20.8652 14.4991 20.6773 14.5 20.3033 14.5H19.7001C19.3243 14.5 19.1373 14.5 18.9961 14.6036C18.8549 14.7081 18.7954 14.8896 18.6771 15.2526L18.4965 15.8008C18.4143 16.0186 18.2651 16.2048 18.0703 16.3324L17.8879 16.4397C17.6614 16.5588 17.402 16.5909 17.1536 16.5332L16.4936 16.3443C16.1059 16.2316 15.9115 16.1757 15.7401 16.2472C15.5678 16.3178 15.4669 16.4956 15.2653 16.8522L14.9985 17.3233C14.8097 17.657 14.7144 17.8248 14.7327 18.0017C14.751 18.1795 14.8784 18.3225 15.1314 18.6094L15.6888 19.2438C15.8254 19.4188 15.9216 19.725 15.9216 20C15.9216 20.275 15.8254 20.5803 15.6888 20.7563L15.1314 21.3906C14.8784 21.6766 14.751 21.8196 14.7327 21.9974C14.7144 22.1753 14.8097 22.343 14.9985 22.6757L15.2653 23.1478C15.4669 23.5035 15.5678 23.6823 15.7401 23.7528C15.9115 23.8243 16.1059 23.7684 16.4936 23.6557L17.1536 23.4668C17.4017 23.4091 17.6622 23.4422 17.8879 23.5603L18.0703 23.6667C18.2646 23.7932 18.4131 23.9802 18.4965 24.1992L18.6771 24.7483C18.7954 25.1113 18.8549 25.2919 18.9961 25.3964C19.1373 25.5009 19.3252 25.5 19.7001 25.5H20.3033C20.6791 25.5 20.8661 25.5 21.0073 25.3964C21.1484 25.2919 21.208 25.1113 21.3263 24.7483L21.5069 24.1992C21.5894 23.9792 21.7388 23.7932 21.9331 23.6676L22.1155 23.5603C22.3419 23.4412 22.6014 23.4091 22.8498 23.4668L23.5098 23.6557C23.8975 23.7684 24.0919 23.8243 24.2633 23.7528C24.4356 23.6823 24.5364 23.5035 24.7381 23.1478L25.0049 22.6767C25.1937 22.343 25.289 22.1753 25.2707 21.9983C25.2524 21.8196 25.1249 21.6775 24.8719 21.3906L24.3146 20.7563C24.178 20.5812 24.0818 20.275 24.0818 20C24.0818 19.725 24.178 19.4188 24.3146 19.2438L24.8719 18.6094C25.1249 18.3234 25.2524 18.1795 25.2698 18.0026C25.2872 17.8257 25.1937 17.657 25.0049 17.3243L25.0039 17.3233Z" stroke="white" stroke-width="1.5" stroke-linecap="round"/>
<path d="M20.0007 21.6042C20.8866 21.6042 21.6048 20.886 21.6048 20C21.6048 19.1141 20.8866 18.3959 20.0007 18.3959C19.1147 18.3959 18.3965 19.1141 18.3965 20C18.3965 20.886 19.1147 21.6042 20.0007 21.6042Z" stroke="white" stroke-width="1.5"/>
<path d="M26.4173 10.8334V13.4541C24.7055 11.7719 22.4007 10.8305 20.0007 10.8334C14.9379 10.8334 10.834 14.9373 10.834 20C10.8332 21.2617 11.0928 22.51 11.5967 23.6667M13.584 29.1667V26.546C15.2958 28.2282 17.6006 29.1696 20.0007 29.1667C25.0634 29.1667 29.1673 25.0628 29.1673 20C29.1681 18.7384 28.9085 17.4901 28.4047 16.3334" stroke="white" stroke-width="1.5" stroke-linecap="round" stroke-linejoin="round"/>
</svg>
