<svg width="140" height="140" viewBox="0 0 140 140" fill="none" xmlns="http://www.w3.org/2000/svg">
<g clip-path="url(#clip0_2569_6799)">
<path d="M59.85 93.3333H45.675C45.4567 93.3336 45.2417 93.2806 45.0486 93.1789C44.8554 93.0773 44.69 92.93 44.5667 92.75C44.4697 92.5708 44.4189 92.3704 44.4189 92.1666C44.4189 91.9629 44.4697 91.7624 44.5667 91.5833L46.6667 81.6666C47.0435 80.2547 47.0815 78.7738 46.7774 77.3444C46.4732 75.9151 45.8357 74.5778 44.9167 73.4416C43.9741 72.3794 42.8095 71.5374 41.5053 70.9755C40.2011 70.4135 38.7893 70.1453 37.3698 70.1898C35.9504 70.2344 34.5581 70.5905 33.2917 71.2332C32.0253 71.8758 30.9157 72.7891 30.0417 73.9083L16.1 93.8583C15.9612 94.0362 15.7844 94.1809 15.5826 94.2818C15.3807 94.3827 15.1589 94.4373 14.9333 94.4416H4.375C3.21938 94.4568 2.11533 94.9225 1.29811 95.7398C0.480895 96.557 0.0151081 97.661 0 98.8166L0 125.067C0.004907 125.874 0.230271 126.665 0.651764 127.354C1.07326 128.043 1.67487 128.603 2.39167 128.975L5.83333 130.725C21.8167 138.775 25.9583 140 35 140H46.375C55.125 140 61.1333 134.867 64.2833 124.658C68.7167 109.842 69.7667 106.4 69.825 106.283C70.2642 104.754 70.3379 103.144 70.0401 101.581C69.7423 100.018 69.0814 98.5474 68.1106 97.2871C67.1399 96.0268 65.8865 95.0124 64.4516 94.3256C63.0167 93.6388 61.4404 93.2989 59.85 93.3333Z" fill="url(#paint0_linear_2569_6799)"/>
<path d="M139.067 29.8083L129.85 5.83333C129.234 4.14062 128.117 2.67571 126.648 1.63363C125.178 0.591547 123.426 0.0217181 121.625 0L24.6751 0C22.8798 0.0170408 21.1332 0.585912 19.6723 1.62944C18.2114 2.67296 17.1068 4.14063 16.5084 5.83333L7.29176 29.8083C6.09676 33.0861 6.09676 36.6805 7.29176 39.9583C8.60919 43.6521 11.0331 46.85 14.2334 49.1167C14.4145 49.2525 14.5615 49.4286 14.6628 49.6311C14.764 49.8336 14.8168 50.0569 14.8168 50.2833V64.1667C14.8168 65.7138 15.4313 67.1975 16.5253 68.2915C17.6193 69.3854 19.103 70 20.6501 70C22.1972 70 23.6809 69.3854 24.7749 68.2915C25.8688 67.1975 26.4834 65.7138 26.4834 64.1667V53.725C26.5329 53.4081 26.6854 53.1164 26.9174 52.8949C27.1494 52.6734 27.4479 52.5347 27.7668 52.5C32.609 51.7446 36.9746 49.1544 39.9584 45.2667C40.1632 44.9659 40.477 44.7567 40.8334 44.6833C41.059 44.6876 41.2808 44.7423 41.4827 44.8432C41.6845 44.9441 41.8613 45.0888 42.0001 45.2667C43.7741 47.5232 46.0373 49.3475 48.6191 50.602C51.2009 51.8564 54.0339 52.5082 56.9043 52.5082C59.7747 52.5082 62.6076 51.8564 65.1894 50.602C67.7712 49.3475 70.0344 47.5232 71.8084 45.2667C71.9352 45.0901 72.1013 44.9454 72.2937 44.8441C72.4861 44.7429 72.6994 44.6878 72.9168 44.6833C73.1424 44.6876 73.3642 44.7423 73.566 44.8432C73.7678 44.9441 73.9446 45.0888 74.0834 45.2667C75.8574 47.5232 78.1207 49.3475 80.7025 50.602C83.2843 51.8564 86.1172 52.5082 88.9876 52.5082C91.858 52.5082 94.6909 51.8564 97.2727 50.602C99.8545 49.3475 102.118 47.5232 103.892 45.2667C104.019 45.0901 104.185 44.9454 104.377 44.8441C104.569 44.7429 104.783 44.6878 105 44.6833C105.226 44.6876 105.448 44.7423 105.649 44.8432C105.851 44.9441 106.028 45.0888 106.167 45.2667C107.969 47.5424 110.266 49.377 112.884 50.6305C115.503 51.8839 118.372 52.5234 121.275 52.5C121.459 52.5 121.641 52.5362 121.811 52.6066C121.981 52.6769 122.135 52.78 122.265 52.91C122.395 53.04 122.498 53.1944 122.569 53.3642C122.639 53.5341 122.675 53.7161 122.675 53.9V112.233C122.675 112.62 122.521 112.991 122.248 113.265C121.974 113.538 121.604 113.692 121.217 113.692H113.692C113.305 113.692 112.934 113.538 112.661 113.265C112.387 112.991 112.233 112.62 112.233 112.233V78.75C112.233 77.2029 111.619 75.7192 110.525 74.6252C109.431 73.5312 107.947 72.9167 106.4 72.9167H88.9001C87.353 72.9167 85.8693 73.5312 84.7753 74.6252C83.6813 75.7192 83.0668 77.2029 83.0668 78.75V112.292C83.0668 112.678 82.9131 113.049 82.6396 113.323C82.3661 113.596 81.9952 113.75 81.6084 113.75C80.0613 113.75 78.5776 114.365 77.4836 115.459C76.3897 116.552 75.7751 118.036 75.7751 119.583C75.7751 121.13 76.3897 122.614 77.4836 123.708C78.5776 124.802 80.0613 125.417 81.6084 125.417H128.275C129.822 125.417 131.306 124.802 132.4 123.708C133.494 122.614 134.108 121.13 134.108 119.583L134.167 47.8917C134.162 47.6562 134.213 47.4229 134.314 47.2103C134.415 46.9977 134.564 46.8115 134.75 46.6667C136.705 44.7059 138.2 42.3347 139.125 39.725C140.245 36.5109 140.225 33.0091 139.067 29.8083Z" fill="url(#paint1_linear_2569_6799)"/>
</g>
<defs>
<linearGradient id="paint0_linear_2569_6799" x1="35.1098" y1="70.1851" x2="35.1098" y2="140" gradientUnits="userSpaceOnUse">
<stop stop-color="#DEB854"/>
<stop offset="1" stop-color="#AC8B33"/>
</linearGradient>
<linearGradient id="paint1_linear_2569_6799" x1="73.173" y1="0" x2="73.173" y2="125.417" gradientUnits="userSpaceOnUse">
<stop stop-color="#DEB854"/>
<stop offset="1" stop-color="#AC8B33"/>
</linearGradient>
<clipPath id="clip0_2569_6799">
<rect width="140" height="140" fill="white"/>
</clipPath>
</defs>
</svg>
