<svg width="24" height="14" viewBox="0 0 24 14" fill="none" xmlns="http://www.w3.org/2000/svg">
<path d="M7.90922 13.5C9.03889 13.5 9.95467 12.6046 9.95467 11.5C9.95467 10.3954 9.03889 9.5 7.90922 9.5C6.77955 9.5 5.86377 10.3954 5.86377 11.5C5.86377 12.6046 6.77955 13.5 7.90922 13.5Z" stroke="#005770" stroke-miterlimit="1.5" stroke-linecap="round" stroke-linejoin="round"/>
<path d="M18.1363 13.5C19.266 13.5 20.1817 12.6046 20.1817 11.5C20.1817 10.3954 19.266 9.5 18.1363 9.5C17.0066 9.5 16.0908 10.3954 16.0908 11.5C16.0908 12.6046 17.0066 13.5 18.1363 13.5Z" stroke="#005770" stroke-miterlimit="1.5" stroke-linecap="round" stroke-linejoin="round"/>
<path d="M10.0057 11.5H15.0682V1.1C15.0682 0.76863 14.7935 0.5 14.4545 0.5H0.75" stroke="#005770" stroke-linecap="round"/>
<path d="M5.50563 11.5H3.40905C3.07014 11.5 2.79541 11.2314 2.79541 10.9V6" stroke="#005770" stroke-linecap="round"/>
<path d="M1.77295 3.50006H5.86385" stroke="#005770" stroke-linecap="round" stroke-linejoin="round"/>
<path d="M15.0684 3.50006H20.806C21.0484 3.50006 21.2682 3.6397 21.3667 3.85638L23.1973 7.88367C23.2322 7.96047 23.2502 8.04347 23.2502 8.12737V10.9001C23.2502 11.2315 22.9755 11.5001 22.6365 11.5001H20.6934" stroke="#005770" stroke-linecap="round"/>
<path d="M15.0684 11.5H16.0911" stroke="#005770" stroke-linecap="round"/>
</svg>
